HIERARCHY
ROOT Hips
{
	OFFSET 0.000000 0.000000 0.000000
	CHANNELS 6 Xposition Yposition Zposition Zrotation Yrotation Xrotation 
	JOINT LHipJoint
	{
		OFFSET 0.000000 0.000000 0.000000
		CHANNELS 3 Zrotation Yrotation Xrotation
		JOINT LeftUpLeg
		{
			OFFSET 1.363060 -1.794630 0.839290
			CHANNELS 3 Zrotation Yrotation Xrotation
			JOINT LeftLeg
			{
				OFFSET 2.448110 -6.726130 0.000000
				CHANNELS 3 Zrotation Yrotation Xrotation
				JOINT LeftFoot
				{
					OFFSET 2.562200 -7.039590 0.000000
					CHANNELS 3 Zrotation Yrotation Xrotation
					JOINT LeftToeBase
					{
						OFFSET 0.157640 -0.433110 2.322550
						CHANNELS 3 Zrotation Yrotation Xrotation
						End Site
						{
							OFFSET 0.000000 0.000000 0.000000
						}
					}
				}
			}
		}
	}
	JOINT RHipJoint
	{
		OFFSET 0.000000 0.000000 0.000000
		CHANNELS 3 Zrotation Yrotation Xrotation
		JOINT RightUpLeg
		{
			OFFSET -1.305520 -1.794630 0.839290
			CHANNELS 3 Zrotation Yrotation Xrotation
			JOINT RightLeg
			{
				OFFSET -2.542530 -6.985550 0.000000
				CHANNELS 3 Zrotation Yrotation Xrotation
				JOINT RightFoot
				{
					OFFSET -2.568260 -7.056230 0.000000
					CHANNELS 3 Zrotation Yrotation Xrotation
					JOINT RightToeBase
					{
						OFFSET -0.164730 -0.452590 2.363150
						CHANNELS 3 Zrotation Yrotation Xrotation
						End Site
						{
							OFFSET 0.000000 0.000000 0.000000
						}
					}
				}
			}
		}
	}
	JOINT LowerBack
	{
		OFFSET 0.000000 0.000000 0.000000
		CHANNELS 3 Zrotation Yrotation Xrotation
		JOINT Spine
		{
			OFFSET 0.028270 2.035590 -0.193380
			CHANNELS 3 Zrotation Yrotation Xrotation
			JOINT Spine1
			{
				OFFSET 0.056720 2.048850 -0.042750
				CHANNELS 3 Zrotation Yrotation Xrotation
				JOINT Neck
				{
					OFFSET 0.000000 0.000000 0.000000
					CHANNELS 3 Zrotation Yrotation Xrotation
					JOINT Neck1
					{
						OFFSET -0.054170 1.746240 0.172020
						CHANNELS 3 Zrotation Yrotation Xrotation
						JOINT Head
						{
							OFFSET 0.104070 1.761360 -0.123970
							CHANNELS 3 Zrotation Yrotation Xrotation
							End Site
							{
								OFFSET 0.000000 0.000000 0.000000
							}
						}
					}
				}
				JOINT LeftShoulder
				{
					OFFSET 0.000000 0.000000 0.000000
					CHANNELS 3 Zrotation Yrotation Xrotation
					JOINT LeftArm
					{
						OFFSET 3.362410 1.200890 -0.311210
						CHANNELS 3 Zrotation Yrotation Xrotation
						JOINT LeftForeArm
						{
							OFFSET 4.983000 -0.000000 -0.000000
							CHANNELS 3 Zrotation Yrotation Xrotation
							JOINT LeftHand
							{
								OFFSET 3.483560 -0.000000 -0.000000
								CHANNELS 3 Zrotation Yrotation Xrotation
								JOINT LeftFingerBase
								{
									OFFSET 0.000000 0.000000 0.000000
									CHANNELS 3 Zrotation Yrotation Xrotation
									JOINT LeftHandIndex1
									{
										OFFSET 0.715260 -0.000000 -0.000000
										CHANNELS 3 Zrotation Yrotation Xrotation
										End Site
										{
											OFFSET 0.000000 0.000000 0.000000
										}
									}
								}
								JOINT LThumb
								{
									OFFSET 0.000000 0.000000 0.000000
									CHANNELS 3 Zrotation Yrotation Xrotation
									End Site
									{
										OFFSET 0.000000 0.000000 0.000000
									}
								}
							}
						}
					}
				}
				JOINT RightShoulder
				{
					OFFSET 0.000000 0.000000 0.000000
					CHANNELS 3 Zrotation Yrotation Xrotation
					JOINT RightArm
					{
						OFFSET -3.136600 1.374050 -0.404650
						CHANNELS 3 Zrotation Yrotation Xrotation
						JOINT RightForeArm
						{
							OFFSET -5.241900 -0.000000 -0.000000
							CHANNELS 3 Zrotation Yrotation Xrotation
							JOINT RightHand
							{
								OFFSET -3.444170 -0.000000 -0.000000
								CHANNELS 3 Zrotation Yrotation Xrotation
								JOINT RightFingerBase
								{
									OFFSET 0.000000 0.000000 0.000000
									CHANNELS 3 Zrotation Yrotation Xrotation
									JOINT RightHandIndex1
									{
										OFFSET -0.622530 -0.000000 -0.000000
										CHANNELS 3 Zrotation Yrotation Xrotation
										End Site
										{
											OFFSET 0.000000 0.000000 0.000000
										}
									}
								}
								JOINT RThumb
								{
									OFFSET 0.000000 0.000000 0.000000
									CHANNELS 3 Zrotation Yrotation Xrotation
									End Site
									{
										OFFSET 0.000000 0.000000 0.000000
									}
								}
							}
						}
					}
				}
			}
		}
	}
}
MOTION
Frames: 5
Frame Time: 0.008333
19.266595 17.358156 23.066479 173.590181 -12.210393 -166.687995 -5.962781 1.392827 3.474218 -10.468783 -5.665631 -14.189313 3.219508 11.272258 33.927213 3.660796 -12.538592 -12.226214 1.985300 -8.835300 -25.281400 2.825769 -1.330273 1.423741 -6.603487 24.229083 -48.744750 -8.961125 -14.770264 54.014293 0.016653 0.232070 -0.489907 -0.284700 -3.431300 9.481800 -3.517622 -1.052702 11.193857 2.421790 -1.945472 5.701987 1.002234 -1.474851 -2.376488 1.424672 8.159813 -11.061323 -12.547256 8.252321 -9.625399 -4.510700 3.346500 0.846000 -3.148512 -3.869934 0.415048 -88.574147 -14.002290 29.053464 29.064756 -33.449221 -10.766129 -0.442357 -1.432788 -6.714120 25.468153 3.214251 2.302400 -7.125000 0.000000 0.000000 -0.476200 35.220400 0.114400 1.541970 2.208751 0.126304 87.295247 -9.426884 10.586066 -15.620305 22.787616 -3.198204 0.706868 -1.372033 10.334056 -33.501492 40.545913 -24.423900 7.125000 0.000000 0.000000 1.067000 16.995600 1.332500 
19.275337 17.418565 23.096634 173.415131 -12.898933 -166.355819 -5.983918 1.374456 3.450791 -10.401598 -5.659651 -14.472360 3.076506 11.084332 33.327493 3.624138 -12.779122 -11.365506 1.999300 -8.864600 -25.372600 2.841400 -1.335674 1.419617 -6.546217 24.433034 -48.707156 -8.977340 -14.768658 54.005650 0.309529 -2.427357 -0.959497 -0.251900 -3.229600 8.918700 -3.601316 -1.112074 11.150671 2.403237 -2.016336 5.551532 1.048719 -1.486653 -2.491967 1.387588 7.960389 -10.765172 -12.472618 7.968813 -9.787819 -4.501000 3.227200 0.711900 -3.148166 -3.820993 0.396960 -88.562140 -13.339329 29.405116 29.192904 -33.600220 -10.889241 -0.440504 -1.449866 -7.040366 25.601303 3.251669 2.343000 -7.125000 0.000000 0.000000 -0.360400 35.286200 0.086000 1.537661 2.178299 0.119160 87.460746 -9.520888 11.232047 -15.961807 23.264927 -3.354055 0.728794 -1.322337 9.045450 -32.804270 40.011850 -23.620000 7.125000 0.000000 0.000000 1.250500 16.197500 1.550000 
19.274747 17.468464 23.127281 173.202856 -13.550397 -166.065218 -6.019745 1.361310 3.431370 -10.455503 -5.744734 -14.657035 2.911814 10.869045 32.654403 3.549846 -12.797926 -10.494530 2.028900 -8.926000 -25.564200 2.862356 -1.340494 1.408384 -6.703536 24.777167 -48.599594 -8.977057 -14.748994 53.926467 0.636408 -5.050735 -1.442604 -0.178500 -2.721300 7.503800 -3.503170 -1.193791 11.185755 2.271383 -2.108009 5.446042 0.909085 -1.514364 -2.589350 1.333154 7.753936 -10.906588 -12.230476 7.737248 -9.743660 -4.423000 3.113200 0.705400 -3.140187 -3.760395 0.375848 -88.522722 -12.634551 29.588884 29.411206 -33.839141 -11.064689 -0.444413 -1.481807 -7.283765 25.955398 3.668327 2.605000 -7.125000 0.000000 0.000000 -0.070100 35.805000 0.015800 1.537801 2.162289 0.117177 87.651251 -9.290164 11.866767 -16.185619 23.574876 -3.469179 0.730989 -1.251530 7.913480 -31.088090 38.706204 -21.702200 7.125000 0.000000 0.000000 1.746900 14.283500 2.124700 
19.265220 17.511880 23.169911 173.013044 -14.021915 -165.249710 -6.067027 1.311364 3.341772 -10.542730 -6.015539 -15.348569 2.755735 10.636208 32.006954 3.455703 -12.886553 -9.301384 1.739400 -8.300700 -23.631200 2.875195 -1.334892 1.413782 -7.284687 25.080273 -49.245456 -8.955877 -14.709318 53.776483 0.906016 -7.019735 -1.645606 -0.226900 -3.065800 8.462100 -3.229344 -1.258631 10.653013 2.086991 -2.136942 5.302710 0.598652 -1.515037 -2.384663 1.107071 7.509941 -11.446316 -11.869163 7.509231 -9.536830 -4.273300 2.981900 0.801100 -3.137260 -3.737562 0.371380 -88.403533 -12.404024 29.614128 29.395460 -33.837993 -11.064981 -0.434434 -1.474318 -7.549176 25.770299 3.403261 2.447400 -7.125000 0.000000 0.000000 -0.217900 35.489100 0.050900 1.539155 2.175436 0.118141 87.798629 -8.881526 12.551455 -16.384309 23.846179 -3.582283 0.724960 -1.143442 6.319642 -28.498822 36.477355 -18.825900 7.125000 0.000000 0.000000 2.529200 11.172100 2.974000 
19.284963 17.572191 23.180028 172.953470 -15.354165 -165.311873 -6.071757 1.340539 3.359645 -10.186199 -6.303198 -15.113225 2.594917 10.434273 31.325651 3.427287 -13.208008 -8.289631 1.618500 -8.021700 -22.780000 2.900513 -1.338149 1.394683 -7.046494 25.217537 -48.417102 -8.905512 -14.674772 53.538163 1.212407 -9.120996 -2.115289 -0.242800 -3.170900 8.755000 -3.077982 -1.441295 11.014077 2.161481 -2.359273 5.305663 0.622157 -1.620032 -2.549195 1.075197 7.229632 -11.519614 -11.394215 7.205581 -9.493874 -4.573800 2.838500 0.816300 -3.151596 -3.704390 0.363874 -88.350782 -12.243746 29.836327 29.148928 -33.608085 -10.911974 -0.410829 -1.457875 -7.855443 25.090062 2.942164 2.141000 -7.125000 0.000000 0.000000 -0.780200 34.919100 0.193100 1.535744 2.190430 0.115498 87.918051 -8.924411 13.102392 -16.705811 24.290751 -3.741181 0.731687 -1.073270 4.693690 -27.135129 35.462839 -17.436200 7.125000 0.000000 0.000000 3.026700 9.712300 3.498400 
